<?xml version="1.0" encoding="UTF-8"?>
<svg version="1.1" xmlns="http://www.w3.org/2000/svg" width="500" height="500">
<path d="M0 0 C165 0 330 0 500 0 C500 165 500 330 500 500 C335 500 170 500 0 500 C0 335 0 170 0 0 Z " fill="#FEFEFF" transform="translate(0,0)"/>
<path d="M0 0 C9.71989032 5.24482672 18.57877534 7.60460519 29.50390625 8.8203125 C43.67329705 10.58319877 55.10109032 14.11224293 64.56640625 25.3828125 C66.81559329 29.03513338 68.69437727 32.83863248 70.56640625 36.6953125 C74.35655431 44.41241877 78.44643757 51.46675582 83.56640625 58.3828125 C84.52546875 59.713125 84.52546875 59.713125 85.50390625 61.0703125 C87.33289359 63.12099528 89.16663756 64.79531235 91.25390625 66.5703125 C100.21275424 74.29230461 109.70455662 83.89828123 110.72753906 96.34301758 C110.93018295 106.28081516 110.41703139 115.21215713 108.24609375 124.9296875 C106.46228456 133.99225831 107.67751736 142.61596765 109.06640625 151.6328125 C113.11394102 178.07101558 113.11394102 178.07101558 106.56640625 188.3828125 C106.00953125 189.3521875 105.45265625 190.3215625 104.87890625 191.3203125 C100.31980602 197.35803984 95.36119367 203.01433308 89.50390625 207.8203125 C80.76020935 215.33954692 76.15498039 224.98520376 71.21411133 235.1652832 C68.27007319 241.16302931 65.23326282 246.53559433 60.56640625 251.3828125 C60.07398438 251.93710937 59.5815625 252.49140625 59.07421875 253.0625 C50.67993724 261.45678151 38.1156237 262.74766132 26.94140625 264.3828125 C18.15296173 265.67977425 10.45625196 267.11716421 2.56640625 271.3828125 C1.18900139 272.12146553 -0.18862132 272.8597124 -1.56640625 273.59765625 C-2.3022998 273.99259277 -3.03819336 274.3875293 -3.79638672 274.79443359 C-4.54291504 275.19484863 -5.28944336 275.59526367 -6.05859375 276.0078125 C-7.16098389 276.60070068 -7.16098389 276.60070068 -8.28564453 277.20556641 C-19.28203262 283.04995682 -29.14883994 285.29308887 -41.43359375 282.0078125 C-48.19270087 279.76825189 -54.34101089 276.46628388 -60.546875 273.00048828 C-69.09420162 268.26944899 -77.01379199 266.07979334 -86.68359375 264.9453125 C-103.2906794 262.76212564 -115.86215737 259.03298793 -126.43359375 245.3828125 C-128.70694913 241.6361027 -130.64610482 237.76127688 -132.55859375 233.8203125 C-135.99968694 226.81490395 -139.50408081 220.45115088 -144.43359375 214.3828125 C-145.60921875 212.866875 -145.60921875 212.866875 -146.80859375 211.3203125 C-148.89071437 208.99032037 -150.88190773 207.07964019 -153.24609375 205.0703125 C-161.88063245 197.6413509 -170.64205846 188.30698603 -171.59472656 176.36254883 C-171.77402536 167.19224907 -171.71548725 158.34384585 -169.93359375 149.3203125 C-167.99361773 139.43185499 -168.23734144 131.24444517 -169.93359375 121.3828125 C-172.0632163 108.71477358 -174.38048381 94.79685222 -167.5390625 83.2265625 C-162.3494846 76.21726248 -156.43189898 69.66552937 -149.62109375 64.1953125 C-142.35956302 58.21419661 -138.45479398 49.63823023 -134.41430664 41.35595703 C-127.8534462 27.98098219 -120.57425636 16.67842901 -106.08203125 11.55078125 C-100.49652273 9.83800447 -94.98091674 9.07681504 -89.18359375 8.5078125 C-75.34808117 7.04094047 -64.01026701 2.02446924 -52.01660156 -4.78295898 C-33.20597633 -15.21341813 -17.66196378 -9.73642211 0 0 Z " fill="#FDFDFE" transform="translate(280.43359375,113.6171875)"/>
<path d="M0 0 C6.26090301 4.03889626 10.30995985 9.80070449 12.61328125 16.88671875 C14.95060369 29.65935954 11.25311132 38.09388584 4.171875 48.34765625 C3.78515625 48.89292969 3.3984375 49.43820312 3 50 C4.11117187 49.855625 5.22234375 49.71125 6.3671875 49.5625 C10.20621746 49.07441451 14.04914966 48.63952564 17.89746094 48.23144531 C19.614411 48.04244524 21.32755378 47.81912506 23.0390625 47.5859375 C28.35789659 47.13003743 30.9329379 48.25589206 35.0625 51.6875 C38.24652481 54.65888344 39.50494139 56.65110053 40 61 C42.97 61 45.94 61 49 61 C53.91934544 72.42592854 53.91934544 72.42592854 56.21582031 77.81201172 C56.48818512 78.45076233 56.76054993 79.08951294 57.04116821 79.74761963 C57.58943226 81.03350324 58.13758892 82.31943265 58.68563843 83.60540771 C60.21277147 87.1815885 61.7677457 90.74331894 63.35546875 94.29296875 C63.98706177 95.73694304 64.61858034 97.1809499 65.25 98.625 C65.53689697 99.24238037 65.82379395 99.85976074 66.11938477 100.49584961 C68.56670326 106.18611689 68 109.0269925 68 116 C52.82 116 37.64 116 22 116 C22 118.31 22 120.62 22 123 C21.50663208 125.74435903 20.75547654 128.30861481 20 131 C17.66475218 128.74259377 15.81294927 126.7194239 14 124 C11.03 124.33 8.06 124.66 5 125 C5.33 122.03 5.66 119.06 6 116 C0.72 116 -4.56 116 -10 116 C-10.99 117.98 -10.99 117.98 -12 120 C-15.375 121 -15.375 121 -19 121 C-19.57961487 120.35125916 -20.15922974 119.70251831 -20.75640869 119.03411865 C-23.83538385 116.24261167 -26.56594085 116.42589576 -30.52246094 116.45410156 C-31.6498745 116.43859505 -31.6498745 116.43859505 -32.80006409 116.42277527 C-35.27838608 116.39333446 -37.75589184 116.39184789 -40.234375 116.390625 C-41.95503295 116.37564414 -43.67567651 116.35891719 -45.39630127 116.34051514 C-49.92051858 116.2968185 -54.44454191 116.27683749 -58.96893311 116.26177979 C-63.58747845 116.24221698 -68.20581404 116.20024607 -72.82421875 116.16015625 C-81.88274784 116.08482917 -90.94123005 116.03455287 -100 116 C-100.4916337 108.11608096 -99.52191025 102.26589061 -96.3515625 95.0625 C-95.97897308 94.1751416 -95.60638367 93.2877832 -95.22250366 92.37353516 C-94.04150658 89.57422611 -92.83352069 86.78751916 -91.625 84 C-90.82118694 82.10099165 -90.0190879 80.20125682 -89.21875 78.30078125 C-87.75165394 74.83942503 -86.2823194 71.37921556 -84.78759766 67.9296875 C-84.34125473 66.89690674 -84.34125473 66.89690674 -83.88589478 65.84326172 C-83 64 -83 64 -81 61 C-78.96107742 60.8058169 -76.9221251 60.61191847 -74.8828125 60.421875 C-72.76153602 60.16296662 -72.76153602 60.16296662 -71.4375 57.875 C-70.963125 56.92625 -70.48875 55.9775 -70 55 C-67.49054852 51.46628261 -65.04799314 48.42053949 -60.66015625 47.51953125 C-57.7371779 47.49755397 -54.91049164 47.72148405 -52 48 C-50.57846408 48.08893021 -49.15654706 48.17190021 -47.734375 48.25 C-43.82024229 48.46742785 -39.91051163 48.72523381 -36 49 C-36.83144531 47.78763672 -36.83144531 47.78763672 -37.6796875 46.55078125 C-38.40414062 45.48214844 -39.12859375 44.41351563 -39.875 43.3125 C-40.59429687 42.25675781 -41.31359375 41.20101562 -42.0546875 40.11328125 C-46.57167537 32.88428661 -46.87368182 26.41493547 -46 18 C-43.57520567 9.75569929 -37.99050445 3.41049918 -30.9765625 -1.3828125 C-21.36290396 -6.49341908 -9.24698835 -5.31950405 0 0 Z " fill="#C7D1FE" transform="translate(266,222)"/>
<path d="M0 0 C9.71989032 5.24482672 18.57877534 7.60460519 29.50390625 8.8203125 C43.67329705 10.58319877 55.10109032 14.11224293 64.56640625 25.3828125 C66.81559329 29.03513338 68.69437727 32.83863248 70.56640625 36.6953125 C74.35655431 44.41241877 78.44643757 51.46675582 83.56640625 58.3828125 C84.52546875 59.713125 84.52546875 59.713125 85.50390625 61.0703125 C87.33289359 63.12099528 89.16663756 64.79531235 91.25390625 66.5703125 C100.21275424 74.29230461 109.70455662 83.89828123 110.72753906 96.34301758 C110.93018295 106.28081516 110.41703139 115.21215713 108.24609375 124.9296875 C106.46228456 133.99225831 107.67751736 142.61596765 109.06640625 151.6328125 C113.11394102 178.07101558 113.11394102 178.07101558 106.56640625 188.3828125 C106.00953125 189.3521875 105.45265625 190.3215625 104.87890625 191.3203125 C100.31980602 197.35803984 95.36119367 203.01433308 89.50390625 207.8203125 C80.76020935 215.33954692 76.15498039 224.98520376 71.21411133 235.1652832 C68.27007319 241.16302931 65.23326282 246.53559433 60.56640625 251.3828125 C60.07398438 251.93710937 59.5815625 252.49140625 59.07421875 253.0625 C50.67993724 261.45678151 38.1156237 262.74766132 26.94140625 264.3828125 C18.15296173 265.67977425 10.45625196 267.11716421 2.56640625 271.3828125 C1.18900139 272.12146553 -0.18862132 272.8597124 -1.56640625 273.59765625 C-2.3022998 273.99259277 -3.03819336 274.3875293 -3.79638672 274.79443359 C-4.54291504 275.19484863 -5.28944336 275.59526367 -6.05859375 276.0078125 C-7.16098389 276.60070068 -7.16098389 276.60070068 -8.28564453 277.20556641 C-19.28203262 283.04995682 -29.14883994 285.29308887 -41.43359375 282.0078125 C-48.19270087 279.76825189 -54.34101089 276.46628388 -60.546875 273.00048828 C-69.09420162 268.26944899 -77.01379199 266.07979334 -86.68359375 264.9453125 C-103.2906794 262.76212564 -115.86215737 259.03298793 -126.43359375 245.3828125 C-128.70694913 241.6361027 -130.64610482 237.76127688 -132.55859375 233.8203125 C-135.99968694 226.81490395 -139.50408081 220.45115088 -144.43359375 214.3828125 C-145.60921875 212.866875 -145.60921875 212.866875 -146.80859375 211.3203125 C-148.89071437 208.99032037 -150.88190773 207.07964019 -153.24609375 205.0703125 C-161.88063245 197.6413509 -170.64205846 188.30698603 -171.59472656 176.36254883 C-171.77402536 167.19224907 -171.71548725 158.34384585 -169.93359375 149.3203125 C-167.99361773 139.43185499 -168.23734144 131.24444517 -169.93359375 121.3828125 C-172.0632163 108.71477358 -174.38048381 94.79685222 -167.5390625 83.2265625 C-162.3494846 76.21726248 -156.43189898 69.66552937 -149.62109375 64.1953125 C-142.35956302 58.21419661 -138.45479398 49.63823023 -134.41430664 41.35595703 C-127.8534462 27.98098219 -120.57425636 16.67842901 -106.08203125 11.55078125 C-100.49652273 9.83800447 -94.98091674 9.07681504 -89.18359375 8.5078125 C-75.34808117 7.04094047 -64.01026701 2.02446924 -52.01660156 -4.78295898 C-33.20597633 -15.21341813 -17.66196378 -9.73642211 0 0 Z M-58.62011719 7.49658203 C-68.35724663 12.42632736 -77.68917952 15.04812758 -88.44580078 16.68994141 C-99.67504055 18.42854877 -108.96331854 20.10423673 -117.43359375 28.3828125 C-119.52132758 31.32841469 -119.52132758 31.32841469 -121.24609375 34.6328125 C-121.57955811 35.23270996 -121.91302246 35.83260742 -122.2565918 36.45068359 C-124.10920425 39.81195632 -125.85788717 43.21590124 -127.55859375 46.65625 C-132.77686145 57.11276525 -138.61008398 64.78513494 -147.01220703 72.90917969 C-148.6148853 74.45896909 -150.21364762 76.012567 -151.80859375 77.5703125 C-152.31729004 78.06619873 -152.82598633 78.56208496 -153.35009766 79.07299805 C-157.36911204 83.09134504 -160.14739501 87.20695139 -162.43359375 92.3828125 C-162.92859375 93.3728125 -162.92859375 93.3728125 -163.43359375 94.3828125 C-163.99590171 102.3524464 -163.51957012 109.82640634 -161.93359375 117.6328125 C-159.30899219 130.92845126 -159.77180237 143.35236325 -162.74609375 156.55078125 C-164.40896467 165.819397 -165.73115586 177.29564803 -160.09375 185.3984375 C-159.54589844 186.05328125 -158.99804688 186.708125 -158.43359375 187.3828125 C-157.50353516 188.51976562 -157.50353516 188.51976562 -156.5546875 189.6796875 C-153.29560581 193.44893851 -149.8657271 196.99656519 -146.2421875 200.4140625 C-138.483135 207.77950709 -133.27404592 214.76247438 -128.43359375 224.3828125 C-127.28743479 226.61807493 -126.1347117 228.84959708 -124.97363281 231.07714844 C-124.22223891 232.52388087 -123.48117912 233.97605041 -122.75292969 235.43457031 C-118.18950502 244.32707011 -113.03205293 249.9508102 -103.43359375 253.3828125 C-99.39769292 254.32748611 -95.35692042 254.87400622 -91.24609375 255.3828125 C-76.96936674 257.44067211 -65.17945011 261.21538375 -52.50390625 268.13525391 C-40.14836089 274.87592953 -40.14836089 274.87592953 -26.43359375 275.3828125 C-18.01662989 272.87329335 -10.23975236 269.4328889 -2.55859375 265.1953125 C9.21933212 258.7071906 21.45864952 257.04111634 34.56640625 254.890625 C43.04706135 253.38000831 50.36569101 250.57395545 56.56640625 244.3828125 C58.65414008 241.43721031 58.65414008 241.43721031 60.37890625 238.1328125 C60.71237061 237.53291504 61.04583496 236.93301758 61.3894043 236.31494141 C63.24201675 232.95366868 64.99069967 229.54972376 66.69140625 226.109375 C72.23630927 214.99959183 78.54316338 207.18706577 87.5 198.5546875 C94.41273364 191.85812206 102.11712605 184.37257557 102.76953125 174.22265625 C102.86015642 166.67811117 102.43805543 159.62151927 101.06640625 152.1953125 C99.0516871 141.07331228 99.36690342 131.16210044 101.06640625 120.0078125 C104.11176839 103.68980477 104.11176839 103.68980477 100.00390625 88.25 C95.84987476 82.85427431 91.22767081 77.97119904 86.3359375 73.2421875 C75.6999764 62.94768459 69.19053912 52.02775783 62.56005859 38.81835938 C57.38830921 28.65882846 51.82891393 23.09956866 40.99536133 19.09448242 C36.13454302 17.67029051 31.07964249 17.25992172 26.06640625 16.6328125 C15.14087024 15.1000989 6.26805514 12.50978214 -3.43359375 7.3828125 C-5.57955847 6.29312324 -7.73012139 5.21305352 -9.88232422 4.13574219 C-11.24217971 3.45031722 -12.59716634 2.75509938 -13.94580078 2.04785156 C-30.83729269 -6.6917171 -42.88265428 -0.528704 -58.62011719 7.49658203 Z " fill="#5674FF" transform="translate(280.43359375,113.6171875)"/>
<path d="M0 0 C7.5273523 4.93654267 7.5273523 4.93654267 9.5 9.375 C9.665 10.24125 9.83 11.1075 10 12 C12.97 12 15.94 12 19 12 C23.91934544 23.42592854 23.91934544 23.42592854 26.21582031 28.81201172 C26.48818512 29.45076233 26.76054993 30.08951294 27.04116821 30.74761963 C27.58943226 32.03350324 28.13758892 33.31943265 28.68563843 34.60540771 C30.21277147 38.1815885 31.7677457 41.74331894 33.35546875 45.29296875 C33.98706177 46.73694304 34.61858034 48.1809499 35.25 49.625 C35.68034546 50.55107056 35.68034546 50.55107056 36.11938477 51.49584961 C38.56670326 57.18611689 38 60.0269925 38 67 C22.82 67 7.64 67 -8 67 C-8 69.31 -8 71.62 -8 74 C-8.49336792 76.74435903 -9.24452346 79.30861481 -10 82 C-12.33524782 79.74259377 -14.18705073 77.7194239 -16 75 C-20.455 75.495 -20.455 75.495 -25 76 C-24.67 73.03 -24.34 70.06 -24 67 C-29.28 67 -34.56 67 -40 67 C-40.99 68.98 -40.99 68.98 -42 71 C-45.375 72 -45.375 72 -49 72 C-49.57961487 71.35125916 -50.15922974 70.70251831 -50.75640869 70.03411865 C-53.83538385 67.24261167 -56.56594085 67.42589576 -60.52246094 67.45410156 C-61.6498745 67.43859505 -61.6498745 67.43859505 -62.80006409 67.42277527 C-65.27838608 67.39333446 -67.75589184 67.39184789 -70.234375 67.390625 C-71.95503295 67.37564414 -73.67567651 67.35891719 -75.39630127 67.34051514 C-79.92051858 67.2968185 -84.44454191 67.27683749 -88.96893311 67.26177979 C-93.58747845 67.24221698 -98.20581404 67.20024607 -102.82421875 67.16015625 C-111.88274784 67.08482917 -120.94123005 67.03455287 -130 67 C-130.49814867 59.09260156 -129.50850709 53.2456112 -126.31640625 46.02734375 C-125.94144516 45.13761368 -125.56648407 44.24788361 -125.18016052 43.33119202 C-123.99251171 40.52510376 -122.7781024 37.73157479 -121.5625 34.9375 C-120.75016396 33.03005785 -119.93960052 31.12185976 -119.13085938 29.21289062 C-113.60329258 16.20658515 -113.60329258 16.20658515 -112 13 C-109.36 13 -106.72 13 -104 13 C-104.72416783 17.8892041 -106.55124594 22.24275859 -108.37890625 26.80078125 C-108.71043198 27.63715622 -109.0419577 28.47353119 -109.38352966 29.33525085 C-110.43922937 31.99592622 -111.50077592 34.65422366 -112.5625 37.3125 C-113.28098638 39.12028878 -113.99908972 40.92822985 -114.71679688 42.73632812 C-116.47343113 47.15932893 -118.23531142 51.58020688 -120 56 C-118.83082031 55.79141357 -117.66164062 55.58282715 -116.45703125 55.36791992 C-114.90886317 55.09288552 -113.36068558 54.81790461 -111.8125 54.54296875 C-111.04357422 54.40564331 -110.27464844 54.26831787 -109.48242188 54.12683105 C-91.62066603 50.95981909 -73.51148687 50.26035063 -56.25 56.6875 C-46.19785197 60.20668776 -36.71930736 57.17828445 -27 54 C-27.33 52.35 -27.66 50.7 -28 49 C-13.49393807 43.07051483 2.17628224 43.22230058 17 48 C14.32669712 38.22107796 10.53915139 28.91274321 6.8125 19.5 C5.83181601 17.02076164 4.85236323 14.54107672 3.87712097 12.05969238 C3.27384498 10.52480474 2.66743614 8.99114394 2.05757141 7.4588623 C0 2.22520864 0 2.22520864 0 0 Z " fill="#A7B7F9" transform="translate(296,271)"/>
<path d="M0 0 C6.26090301 4.03889626 10.30995985 9.80070449 12.61328125 16.88671875 C14.18655811 25.48412056 13.63304732 33.5334078 9 41 C7.80241979 42.65367423 6.59354158 44.29921028 5.375 45.9375 C2.22489624 50.22030064 1.0502107 53.7098064 0.484375 58.96875 C0 61 0 61 -3 63 C-3.495 64.485 -3.495 64.485 -4 66 C-3.34 66 -2.68 66 -2 66 C-2.57584432 68.38564077 -3.22227595 70.66682784 -4 73 C-3.34 73 -2.68 73 -2 73 C-2 73.99 -2 74.98 -2 76 C-2.99 76.33 -3.98 76.66 -5 77 C-6.69088222 78.97956942 -8.35830472 80.97945196 -10 83 C-13.20654485 84.60327242 -16.52085702 84.49423339 -20 84 C-23.1875 82.0625 -23.1875 82.0625 -26 80 C-28.7282504 79.21784412 -28.7282504 79.21784412 -31 79 C-30.67 78.01 -30.34 77.02 -30 76 C-29.34 76 -28.68 76 -28 76 C-28 74.68 -28 73.36 -28 72 C-28.99 72 -29.98 72 -31 72 C-30.67 71.01 -30.34 70.02 -30 69 C-29.34 69 -28.68 69 -28 69 C-28 67.02 -28 65.04 -28 63 C-28.9590625 62.5359375 -28.9590625 62.5359375 -29.9375 62.0625 C-32 61 -32 61 -33 60 C-33.16947579 58.58366664 -33.33545507 57.16691467 -33.5 55.75 C-34.53948801 50.10590493 -37.35080996 46.05137286 -40.72460938 41.55566406 C-46.42303386 33.95933457 -46.97181683 27.36013053 -46 18 C-43.57520567 9.75569929 -37.99050445 3.41049918 -30.9765625 -1.3828125 C-21.36290396 -6.49341908 -9.24698835 -5.31950405 0 0 Z " fill="#5573FE" transform="translate(266,222)"/>
<path d="M0 0 C2.64 0 5.28 0 8 0 C7.27583217 4.8892041 5.44875406 9.24275859 3.62109375 13.80078125 C3.28956802 14.63715622 2.9580423 15.47353119 2.61647034 16.33525085 C1.56077063 18.99592622 0.49922408 21.65422366 -0.5625 24.3125 C-1.28098638 26.12028878 -1.99908972 27.92822985 -2.71679688 29.73632812 C-4.47343113 34.15932893 -6.23531142 38.58020688 -8 43 C-6.83082031 42.79141357 -5.66164062 42.58282715 -4.45703125 42.36791992 C-2.90886317 42.09288552 -1.36068558 41.81790461 0.1875 41.54296875 C0.95642578 41.40564331 1.72535156 41.26831787 2.51757812 41.12683105 C20.37933397 37.95981909 38.48851313 37.26035063 55.75 43.6875 C63.36210038 46.39179882 70.58076153 45.50424513 77.984375 42.66796875 C80.69611285 41.76931144 83.17162002 41.78243231 86 42 C86.99 47.445 86.99 47.445 88 53 C86.97519531 53.01417969 85.95039063 53.02835937 84.89453125 53.04296875 C83.53381029 53.08989016 82.17313459 53.13813744 80.8125 53.1875 C80.13896484 53.19330078 79.46542969 53.19910156 78.77148438 53.20507812 C74.79916769 53.37947252 73.18045355 53.83948607 70.171875 56.515625 C69.45515625 57.33546875 68.7384375 58.1553125 68 59 C65.4375 59.5625 65.4375 59.5625 63 59 C62.44487732 58.33965759 61.88975464 57.67931519 61.31781006 56.9989624 C58.17338213 54.28709515 55.44191719 54.42583974 51.47753906 54.45410156 C50.72593002 54.44376389 49.97432098 54.43342621 49.19993591 54.42277527 C46.72161392 54.39333446 44.24410816 54.39184789 41.765625 54.390625 C40.04496705 54.37564414 38.32432349 54.35891719 36.60369873 54.34051514 C32.07948142 54.2968185 27.55545809 54.27683749 23.03106689 54.26177979 C18.41252155 54.24221698 13.79418596 54.20024607 9.17578125 54.16015625 C0.11725216 54.08482917 -8.94123005 54.03455287 -18 54 C-18.49814867 46.09260156 -17.50850709 40.2456112 -14.31640625 33.02734375 C-13.94144516 32.13761368 -13.56648407 31.24788361 -13.18016052 30.33119202 C-11.99251171 27.52510376 -10.7781024 24.73157479 -9.5625 21.9375 C-8.75016396 20.03005785 -7.93960052 18.12185976 -7.13085938 16.21289062 C-1.60329258 3.20658515 -1.60329258 3.20658515 0 0 Z " fill="#35444C" transform="translate(184,284)"/>
<path d="M0 0 C2.64 0 5.28 0 8 0 C12.25029578 8.06526801 15.85327546 16.37839848 19.35864258 24.78637695 C19.99652971 26.30852225 20.64144322 27.82774133 21.29321289 29.34399414 C22.24899623 31.56808832 23.18320398 33.80020989 24.11328125 36.03515625 C24.40382889 36.70104263 24.69437653 37.36692902 24.99372864 38.05299377 C27.2683959 43.63089122 27 46.38407272 27 53 C11.82 53 -3.36 53 -19 53 C-19.33 50.03 -19.66 47.06 -20 44 C-20.30704854 42.32829127 -20.62562851 40.6579309 -21 39 C-8.57178477 38.50725138 3.70019917 40.46121641 16 42 C15.79955078 41.48856949 15.59910156 40.97713898 15.39257812 40.45021057 C13.31437951 35.1468795 11.23852785 29.84263426 9.1640625 24.5378418 C8.38862827 22.5558332 7.61258748 20.57406181 6.8359375 18.5925293 C5.7223772 15.75110407 4.61097155 12.90884448 3.5 10.06640625 C3.15001953 9.17474258 2.80003906 8.28307892 2.43945312 7.36439514 C2.11912109 6.54361984 1.79878906 5.72284454 1.46875 4.87719727 C1.18451172 4.15105728 0.90027344 3.4249173 0.60742188 2.67677307 C0 1 0 1 0 0 Z " fill="#51616B" transform="translate(307,284)"/>
<path d="M0 0 C2.64 0 5.28 0 8 0 C7.27583217 4.8892041 5.44875406 9.24275859 3.62109375 13.80078125 C3.28956802 14.63715622 2.9580423 15.47353119 2.61647034 16.33525085 C1.56077063 18.99592622 0.49922408 21.65422366 -0.5625 24.3125 C-1.28098638 26.12028878 -1.99908972 27.92822985 -2.71679688 29.73632812 C-4.47343113 34.15932893 -6.23531142 38.58020688 -8 43 C-6.83082031 42.79141357 -5.66164062 42.58282715 -4.45703125 42.36791992 C-2.90886317 42.09288552 -1.36068558 41.81790461 0.1875 41.54296875 C0.95642578 41.40564331 1.72535156 41.26831787 2.51757812 41.12683105 C22.33924424 37.61231354 40.93779434 37.97708212 60 45 C60 45.33 60 45.66 60 46 C34.26 46 8.52 46 -18 46 C-17.30765103 42.53825517 -16.73323576 40.03155092 -15.43359375 36.8840332 C-15.11656494 36.11005692 -14.79953613 35.33608063 -14.47290039 34.53865051 C-14.13121826 33.71765366 -13.78953613 32.8966568 -13.4375 32.05078125 C-12.91047485 30.77003975 -12.91047485 30.77003975 -12.37280273 29.46342468 C-11.25274365 26.74469144 -10.12636809 24.0286246 -9 21.3125 C-8.24179095 19.47347074 -7.48397403 17.63427974 -6.7265625 15.79492188 C-5.34212441 12.43826288 -3.95723923 9.08179814 -2.56640625 5.7277832 C-2.28740479 5.05447464 -2.00840332 4.38116608 -1.72094727 3.68745422 C-1.18802943 2.44010301 -0.60661132 1.21322264 0 0 Z " fill="#50616B" transform="translate(184,284)"/>
<path d="M0 0 C-2.68803968 9.81284374 -6.46683373 19.16989044 -10.1875 28.625 C-10.84866797 30.31366091 -11.50947828 32.0024619 -12.16992188 33.69140625 C-13.77582728 37.79589814 -15.38656697 41.89846163 -17 46 C-13.90038584 46 -11.17637023 45.53716053 -8.125 45 C9.94539183 42.21840037 25.66670245 45.04539845 41 55 C41.66 55.99 42.32 56.98 43 58 C42.37996094 57.81824219 41.75992188 57.63648438 41.12109375 57.44921875 C19.40950571 51.28654092 1.42601565 51.39127311 -20.7043457 54.72460938 C-23 55 -23 55 -27 55 C-24.52316688 45.6756207 -20.88345918 36.81825819 -17.3125 27.875 C-16.69948901 26.33088028 -16.08685579 24.78661053 -15.47460938 23.2421875 C-13.98742121 19.49304831 -12.49514024 15.74597463 -11 12 C-13.31 12 -15.62 12 -18 12 C-18 11.67 -18 11.34 -18 11 C-16.741875 10.938125 -15.48375 10.87625 -14.1875 10.8125 C-11.98552833 10.59173815 -11.98552833 10.59173815 -10 10 C-8.20968895 7.7667506 -8.20968895 7.7667506 -7 5 C-2.44444444 0 -2.44444444 0 0 0 Z " fill="#A7B7F9" transform="translate(203,272)"/>
<path d="M0 0 C0.20496094 0.71027344 0.40992188 1.42054688 0.62109375 2.15234375 C0.89050781 3.07144531 1.15992188 3.99054688 1.4375 4.9375 C1.70433594 5.85402344 1.97117187 6.77054687 2.24609375 7.71484375 C2.79026051 9.9402493 2.79026051 9.9402493 4 11 C4 13.97 4 16.94 4 20 C19.18 20 34.36 20 50 20 C50 20.33 50 20.66 50 21 C34.82 21 19.64 21 4 21 C4 23.31 4 25.62 4 28 C3.50663208 30.74435903 2.75547654 33.30861481 2 36 C-0.33524782 33.74259377 -2.18705073 31.7194239 -4 29 C-6.97 29.33 -9.94 29.66 -13 30 C-12.505 25.545 -12.505 25.545 -12 21 C-16.95 21 -21.9 21 -27 21 C-27 20.67 -27 20.34 -27 20 C-22.05 20 -17.1 20 -12 20 C-12.99 16.6278125 -12.99 16.6278125 -14 13.1875 C-16 6.375 -16 6.375 -16 3 C-10.47239641 0.89424625 -5.93002267 -0.37851209 0 0 Z " fill="#5B77F3" transform="translate(284,317)"/>
<path d="M0 0 C7.59 0 15.18 0 23 0 C23 1.32 23 2.64 23 4 C23.99 4 24.98 4 26 4 C25.34 5.98 24.68 7.96 24 10 C24.66 10 25.32 10 26 10 C26 10.99 26 11.98 26 13 C25.01 13.33 24.02 13.66 23 14 C21.30911778 15.97956942 19.64169528 17.97945196 18 20 C14.79345515 21.60327242 11.47914298 21.49423339 8 21 C4.8125 19.0625 4.8125 19.0625 2 17 C-0.7282504 16.21784412 -0.7282504 16.21784412 -3 16 C-2.67 15.01 -2.34 14.02 -2 13 C-1.34 13 -0.68 13 0 13 C0 11.68 0 10.36 0 9 C-0.99 9 -1.98 9 -3 9 C-2.67 8.01 -2.34 7.02 -2 6 C-1.34 6 -0.68 6 0 6 C0 4.02 0 2.04 0 0 Z " fill="#4D5D69" transform="translate(238,285)"/>
<path d="M0 0 C0.33 2.31 0.66 4.62 1 7 C3.31 7 5.62 7 8 7 C7.938125 6.236875 7.87625 5.47375 7.8125 4.6875 C8 2 8 2 9.125 0.125 C11 -1 11 -1 14.125 -0.75 C17 0 17 0 18 1 C18.1875 3.9375 18.1875 3.9375 18 7 C17.34 7.66 16.68 8.32 16 9 C14.02 9 12.04 9 10 9 C10 16.92 10 24.84 10 33 C6.7 33 3.4 33 0 33 C0 25.08 0 17.16 0 9 C-1.98 9 -3.96 9 -6 9 C-7.9375 7.875 -7.9375 7.875 -9 6 C-8.8125 2.875 -8.8125 2.875 -8 0 C-5.13822943 -1.43088528 -3.06624227 -0.59991697 0 0 Z " fill="#DBE2FE" transform="translate(245,252)"/>
<path d="M0 0 C1.32 0 2.64 0 4 0 C4 1.65 4 3.3 4 5 C2.02 5.99 2.02 5.99 0 7 C0 10.63 0 14.26 0 18 C-1.66289062 18.05607422 -1.66289062 18.05607422 -3.359375 18.11328125 C-4.82294974 18.17895448 -6.28648991 18.24540135 -7.75 18.3125 C-8.84441406 18.34633789 -8.84441406 18.34633789 -9.9609375 18.38085938 C-14.28991045 18.59730802 -16.77149298 19.09357682 -20 22 C-22.93846286 22.43001896 -24.35516166 22.40839761 -26.875 20.8125 C-28 19 -28 19 -28 16.5625 C-26.67888597 13.17714531 -25.05270603 11.91681541 -22 10 C-20.68 10 -19.36 10 -18 10 C-18.33 9.34 -18.66 8.68 -19 8 C-19.99 8 -20.98 8 -22 8 C-22.33 8.66 -22.66 9.32 -23 10 C-26.0625 10.625 -26.0625 10.625 -29 11 C-28.73593684 7.74322102 -28.43253722 6.38010847 -25.9375 4.1875 C-21.92838166 2.56679259 -19.31971498 2.58196307 -15 3 C-11.28553914 5.10486115 -11.08157555 9.10632801 -10 13 C-9.34 13.33 -8.68 13.66 -8 14 C-8 9.71 -8 5.42 -8 1 C-6.865625 1.020625 -5.73125 1.04125 -4.5625 1.0625 C-1.18424326 1.41577477 -1.18424326 1.41577477 0 0 Z " fill="#1F1F1F" transform="translate(247,145)"/>
<path d="M0 0 C15.18 0 30.36 0 46 0 C46 2.31 46 4.62 46 7 C30.82 7 15.64 7 0 7 C0 4.69 0 2.38 0 0 Z " fill="#2C3B44" transform="translate(288,330)"/>
<path d="M0 0 C3.19774023 1.90535099 5.53862039 4.00034418 7.125 7.4375 C6.94638699 11.09906664 5.09023564 13.0490791 3 16 C2.21784412 18.7282504 2.21784412 18.7282504 2 21 C-2 21 -2 21 -3.75 19.625 C-5 18 -5 18 -5 16 C-5.7425 15.9175 -6.485 15.835 -7.25 15.75 C-10.61204018 14.83307995 -11.96464165 13.81818848 -14 11 C-13.7 6.7 -13.7 6.7 -12 5 C-6.98120022 4.61393848 -4.09287798 5.02336147 0 8 C0 7.34 0 6.68 0 6 C-0.763125 5.71125 -1.52625 5.4225 -2.3125 5.125 C-5 4 -5 4 -8 2 C-8 1.34 -8 0.68 -8 0 C-4.98381437 -1.50809281 -3.22574397 -0.86846953 0 0 Z " fill="#1D1D1D" transform="translate(322,166)"/>
<path d="M0 0 C3.21394289 0.60580273 5.66947647 2.07182022 7.96875 4.37109375 C8.49347964 8.6119415 8.65634225 12.196457 6.46875 15.93359375 C2.98586705 17.93625145 -0.1590105 18.02415002 -4.03125 17.37109375 C-8.60069444 15.23220486 -8.60069444 15.23220486 -10.03125 12.37109375 C-10.40578632 8.40100872 -10.35872775 6.01240435 -8.53125 2.43359375 C-5.63614241 0.04512999 -3.72447811 -0.22930556 0 0 Z " fill="#070707" transform="translate(284.03125,148.62890625)"/>
<path d="M0 0 C2.875 2.375 2.875 2.375 5 5 C5 5.66 5 6.32 5 7 C3.5437455 7.67119549 2.08492133 8.33681807 0.625 9 C-0.59316406 9.556875 -0.59316406 9.556875 -1.8359375 10.125 C-4 11 -4 11 -6 11 C-5.67 11.66 -5.34 12.32 -5 13 C-3.35 13 -1.7 13 0 13 C0.33 11.68 0.66 10.36 1 9 C2.65 8.67 4.3 8.34 6 8 C6.3125 10.25 6.3125 10.25 6 13 C2.38876312 16.51363589 -0.42903978 17.82862252 -5.4375 18.375 C-9 18 -9 18 -11.4375 15.9375 C-13.41143691 12.22649861 -13.66694827 10.14990033 -13 6 C-9.02715649 1.19076839 -6.2772935 -0.73850512 0 0 Z " fill="#181818" transform="translate(212,155)"/>
<path d="M0 0 C1.99954746 -0.04254356 4.00041636 -0.04080783 6 0 C6.33 0.33 6.66 0.66 7 1 C9.03039402 0.96777152 11.06128092 0.93188381 13.08984375 0.83984375 C15 1 15 1 17 3 C17.14497985 5.58064129 17.18677545 8.04943884 17.125 10.625 C17.11597656 11.33140625 17.10695313 12.0378125 17.09765625 12.765625 C17.07407603 14.51056098 17.03820461 16.25532295 17 18 C14.69 18 12.38 18 10 18 C10 14.04 10 10.08 10 6 C9.01 6 8.02 6 7 6 C6.67 9.63 6.34 13.26 6 17 C3.69 17 1.38 17 -1 17 C-1.12036664 11.22240116 -0.8320582 5.72040011 0 0 Z " fill="#131313" transform="translate(254,145)"/>
<path d="M0 0 C1.44074715 1.782129 2.80510649 3.62660276 4.125 5.5 C5.21167969 7.03140625 5.21167969 7.03140625 6.3203125 8.59375 C6.87460938 9.3878125 7.42890625 10.181875 8 11 C11.57770548 9.61702141 14.74845193 8.04383021 18 6 C18.99 7.32 19.98 8.64 21 10 C19.81981013 11.09129245 18.63036331 12.17257507 17.4375 13.25 C16.77621094 13.85328125 16.11492187 14.4565625 15.43359375 15.078125 C13 17 13 17 6 21 C2.04 15.72 -1.92 10.44 -6 5 C-3.5 0 -3.5 0 0 0 Z " fill="#0B0B0B" transform="translate(182,166)"/>
<path d="M0 0 C0.66 0.33 1.32 0.66 2 1 C1.67 1.99 1.34 2.98 1 4 C1.66 4 2.32 4 3 4 C3 4.99 3 5.98 3 7 C2.01 7.33 1.02 7.66 0 8 C-1.69088222 9.97956942 -3.35830472 11.97945196 -5 14 C-8.20654485 15.60327242 -11.52085702 15.49423339 -15 15 C-18.1875 13.0625 -18.1875 13.0625 -21 11 C-23.7282504 10.21784412 -23.7282504 10.21784412 -26 10 C-25.67 9.01 -25.34 8.02 -25 7 C-16.69433011 4.98709647 -8.50825713 4.43108503 0 4 C0 2.68 0 1.36 0 0 Z " fill="#556573" transform="translate(261,291)"/>
<path d="M0 0 C1.98 0.99 3.96 1.98 6 3 C6 5.97 6 8.94 6 12 C7.65 10.02 9.3 8.04 11 6 C13.86724686 6.57344937 14.8614515 6.8614515 17 9 C15.31211439 10.87709699 13.60391478 12.7238484 11.875 14.5625 C11.1634375 15.36204102 11.1634375 15.36204102 10.4375 16.17773438 C8.9921875 17.69140625 8.9921875 17.69140625 6 20 C0.84774665 19.84774665 0.84774665 19.84774665 -1 18 C-1.35707262 11.92976549 -1.06307945 5.97982191 0 0 Z " fill="#0B0B0B" transform="translate(297,153)"/>
<path d="M0 0 C2.31 0 4.62 0 7 0 C7 7.92 7 15.84 7 24 C4.69 24 2.38 24 0 24 C0 16.08 0 8.16 0 0 Z " fill="#5473FE" transform="translate(246,261)"/>
<path d="M0 0 C1.32 0 2.64 0 4 0 C4 1.65 4 3.3 4 5 C2.02 5.99 2.02 5.99 0 7 C0 10.3 0 13.6 0 17 C-1.98 17 -3.96 17 -6 17 C-6.33895656 15.27192682 -6.67091525 13.54248026 -7 11.8125 C-7.185625 10.84957031 -7.37125 9.88664063 -7.5625 8.89453125 C-7.96877612 6.2065794 -8.07933572 3.71228981 -8 1 C-6.865625 1.020625 -5.73125 1.04125 -4.5625 1.0625 C-1.18424326 1.41577477 -1.18424326 1.41577477 0 0 Z " fill="#090909" transform="translate(247,145)"/>
<path d="M0 0 C7.26 0 14.52 0 22 0 C22 0.99 22 1.98 22 3 C14.58851545 4.28297723 7.52719602 5.25515919 0 5 C0 3.35 0 1.7 0 0 Z " fill="#2C3B44" transform="translate(239,285)"/>
<path d="M0 0 C3.63879675 1.53652003 5.98214646 3.72420759 8.765625 6.5 C10.09980469 7.8303125 10.09980469 7.8303125 11.4609375 9.1875 C12.84152344 10.5796875 12.84152344 10.5796875 14.25 12 C15.18585938 12.928125 16.12171875 13.85625 17.0859375 14.8125 C17.97023437 15.699375 18.85453125 16.58625 19.765625 17.5 C20.57805664 18.3146875 21.39048828 19.129375 22.22753906 19.96875 C24 22 24 22 24 24 C19.9573573 23.46074904 18.06787294 21.45457406 15.234375 18.6328125 C13.90019531 17.30443359 13.90019531 17.30443359 12.5390625 15.94921875 C11.61867187 15.01722656 10.69828125 14.08523437 9.75 13.125 C8.34621094 11.73861328 8.34621094 11.73861328 6.9140625 10.32421875 C6.02976563 9.43605469 5.14546875 8.54789063 4.234375 7.6328125 C3.42194336 6.81699707 2.60951172 6.00118164 1.77246094 5.16064453 C0 3 0 3 0 0 Z " fill="#6782FF" transform="translate(202,201)"/>
<path d="M0 0 C-1.39957689 3.38231081 -2.73064421 5.27928642 -6 7 C-11.31312157 7.50601158 -14.6966226 7.49649414 -19 4 C-19 3.34 -19 2.68 -19 2 C-16.77149723 1.66225668 -14.54216533 1.3299813 -12.3125 1 C-10.45044922 0.7215625 -10.45044922 0.7215625 -8.55078125 0.4375 C-5.64113629 0.07899589 -2.92299978 -0.08942256 0 0 Z " fill="#303F49" transform="translate(260,299)"/>
<path d="M0 0 C0 0.99 0 1.98 0 3 C-2.35344806 3.33923576 -4.7075484 3.67150534 -7.0625 4 C-7.71927734 4.09539062 -8.37605469 4.19078125 -9.05273438 4.2890625 C-13.40138763 4.88887674 -17.61329071 5.09127093 -22 5 C-22 4.01 -22 3.02 -22 2 C-19.45887768 1.66198848 -16.91723254 1.32946621 -14.375 1 C-13.66214844 0.90460938 -12.94929687 0.80921875 -12.21484375 0.7109375 C-8.11178391 0.18393899 -4.14754258 -0.10466984 0 0 Z " fill="#2C3B44" transform="translate(261,292)"/>
<path d="M0 0 C8.61757177 3.16563861 13.69779765 7.7185353 18.15234375 15.75390625 C19.11529299 18.30549985 19.15689668 20.29472084 19 23 C15.68743308 21.34371654 15.30571982 17.80050119 14.09765625 14.4453125 C13.00475181 12.01058589 11.9012652 10.80918113 10 9 C10 8.34 10 7.68 10 7 C9.46375 6.731875 8.9275 6.46375 8.375 6.1875 C5.58333333 4.79166667 2.79166667 3.39583333 0 2 C0 1.34 0 0.68 0 0 Z " fill="#DDE3FF" transform="translate(252,224)"/>
<path d="M0 0 C2 3 2 3 3 6 C2.09636719 6.20496094 1.19273437 6.40992188 0.26171875 6.62109375 C-0.91777344 6.89050781 -2.09726562 7.15992188 -3.3125 7.4375 C-5.07013672 7.83775391 -5.07013672 7.83775391 -6.86328125 8.24609375 C-10.00236971 8.95313969 -10.00236971 8.95313969 -13 10 C-13 9.34 -13 8.68 -13 8 C-10.85718967 6.53417645 -8.73293604 5.18876486 -6.5 3.875 C-5.87996094 3.50246094 -5.25992187 3.12992187 -4.62109375 2.74609375 C-3.08462162 1.82421047 -1.54279325 0.91126525 0 0 Z " fill="#A7B6F7" transform="translate(267,320)"/>
<path d="M0 0 C2.125 0.375 2.125 0.375 4 1 C4.6875 2.75 4.6875 2.75 5 5 C3.5625 7.25 3.5625 7.25 2 9 C0.68 8.67 -0.64 8.34 -2 8 C-2.125 5.125 -2.125 5.125 -2 2 C-1.34 1.34 -0.68 0.68 0 0 Z " fill="#EAEAEA" transform="translate(282,153)"/>
<path d="M0 0 C0.99 0 1.98 0 3 0 C3 5.28 3 10.56 3 16 C2.01 15.67 1.02 15.34 0 15 C0 10.05 0 5.1 0 0 Z " fill="#6E88FF" transform="translate(248,183)"/>
<path d="M0 0 C0.33 1.32 0.66 2.64 1 4 C-4.28 4 -9.56 4 -15 4 C-10.98917213 -0.01082787 -5.44022738 -0.26537695 0 0 Z " fill="#546570" transform="translate(270,326)"/>
<path d="M0 0 C-1.58561638 3.85593074 -4.06509954 6.33216291 -7 9.25 C-7.886875 10.14203125 -8.77375 11.0340625 -9.6875 11.953125 C-12 14 -12 14 -14 14 C-12.41438362 10.14406926 -9.93490046 7.66783709 -7 4.75 C-6.113125 3.85796875 -5.22625 2.9659375 -4.3125 2.046875 C-2 0 -2 0 0 0 Z " fill="#5372FF" transform="translate(288,211)"/>
<path d="M0 0 C1.2065625 0.0309375 1.2065625 0.0309375 2.4375 0.0625 C2.81968767 1.71864657 3.15145102 3.38707024 3.4375 5.0625 C2.4375 6.0625 2.4375 6.0625 -0.625 6.125 C-2.0790625 6.0940625 -2.0790625 6.0940625 -3.5625 6.0625 C-3.605221 4.39638095 -3.60313832 2.72867115 -3.5625 1.0625 C-2.5625 0.0625 -2.5625 0.0625 0 0 Z " fill="#5B79FF" transform="translate(258.5625,252.9375)"/>
<path d="M0 0 C1.67542976 0.28604898 3.34385343 0.61781233 5 1 C5 2.65 5 4.3 5 6 C3.35 6 1.7 6 0 6 C-0.38218767 4.34385343 -0.71395102 2.67542976 -1 1 C-0.67 0.67 -0.34 0.34 0 0 Z " fill="#5271FF" transform="translate(239,253)"/>
<path d="M0 0 C-1.2065625 0.4021875 -1.2065625 0.4021875 -2.4375 0.8125 C-3.283125 1.204375 -4.12875 1.59625 -5 2 C-5.33 2.99 -5.66 3.98 -6 5 C-7.65 5.33 -9.3 5.66 -11 6 C-11.33 5.01 -11.66 4.02 -12 3 C-10.75823305 2.29773859 -9.50614401 1.61370891 -8.25 0.9375 C-7.20585937 0.36322266 -7.20585937 0.36322266 -6.140625 -0.22265625 C-3.63859372 -1.1312406 -2.4667645 -0.88336837 0 0 Z " fill="#D4D4D4" transform="translate(218,163)"/>
<path d="M0 0 C-1.55603771 3.81936528 -3.95604931 6.26044438 -7 9 C-7.66 9 -8.32 9 -9 9 C-7.45665977 5.21180126 -4.44676575 0 0 0 Z " fill="#5A78FF" transform="translate(298,201)"/>
<path d="M0 0 C1.32 0.33 2.64 0.66 4 1 C4 1.66 4 2.32 4 3 C1.69 3.66 -0.62 4.32 -3 5 C-3.66 4.34 -4.32 3.68 -5 3 C-3.68 3 -2.36 3 -1 3 C-0.67 2.01 -0.34 1.02 0 0 Z " fill="#CBCBCB" transform="translate(225,152)"/>
</svg>
